<svg
  aria-hidden="true"
  style="position: absolute; width: 0; height: 0; overflow: hidden"
  version="1.1"
  xmlns="http://www.w3.org/2000/svg"
  xmlns:xlink="http://www.w3.org/1999/xlink"
>
  <defs>
    <symbol id="icon-menu-burger" viewBox="0 0 32 32">
      <path
        d="M4 10h24c1.105 0 2-0.895 2-2s-0.895-2-2-2h-24c-1.105 0-2 0.895-2 2s0.895 2 2 2zM28 14h-24c-1.105 0-2 0.895-2 2s0.895 2 2 2h24c1.105 0 2-0.895 2-2s-0.895-2-2-2zM28 22h-24c-1.105 0-2 0.895-2 2s0.895 2 2 2h24c1.105 0 2-0.895 2-2s-0.895-2-2-2z"
      ></path>
    </symbol>
    <symbol id="icon-close-black" viewBox="0 0 32 32">
      <path
        d="M32 3.223l-3.223-3.223-12.777 12.777-12.777-12.777-3.223 3.223 12.777 12.777-12.777 12.777 3.223 3.223 12.777-12.777 12.777 12.777 3.223-3.223-12.777-12.777 12.777-12.777z"
      ></path>
    </symbol>
    <symbol id="icon-facebook" viewBox="0 0 32 32">
      <path
        d="M29 0h-26c-1.65 0-3 1.35-3 3v26c0 1.65 1.35 3 3 3h13v-14h-4v-4h4v-2c0-3.306 2.694-6 6-6h4v4h-4c-1.1 0-2 0.9-2 2v2h6l-1 4h-5v14h7c1.65 0 3-1.35 3-3v-26c0-1.65-1.35-3-3-3z"
      ></path>
    </symbol>
    <symbol id="icon-instagram" viewBox="0 0 32 32">
      <path
        d="M23.001 2.011h-14.001c-3.86 0-7.001 3.14-7.001 7v14.001c0 3.86 3.14 7.001 7.001 7.001h14.001c3.86 0 7-3.14 7-7.001v-14.001c0-3.86-3.14-7-7-7.001zM29.001 23.012c0 2.205-1.794 4-4 4h-14.001c-2.206 0-4-1.795-4-4v-14.001c0-2.206 1.794-4 4-4h14.001c2.206 0 4 1.794 4 4v14.001z"
      ></path>
      <path
        d="M16 8.996c-3.866 0-7.001 3.134-7.001 7.001s3.134 7.001 7.001 7.001 7.001-3.134 7.001-7.001-3.134-7.001-7.001-7.001zM16 20.001c-2.206 0-4-1.794-4-4s1.794-4 4-4 4 1.794 4 4-1.794 4-4 4z"
      ></path>
      <path d="M23.25 6.498c-0.966 0-1.75 0.784-1.75 1.75s0.784 1.75 1.75 1.75 1.75-0.784 1.75-1.75-0.784-1.75-1.75-1.75z"></path>
    </symbol>
    <symbol id="icon-twitter" viewBox="0 0 32 32">
      <path
        d="M32 6.076c-1.177 0.522-2.443 0.875-3.771 1.034 1.355-0.813 2.396-2.099 2.887-3.632-1.269 0.752-2.674 1.299-4.169 1.593-1.198-1.275-2.904-2.071-4.792-2.071-3.626 0-6.565 2.939-6.565 6.565 0 0.515 0.058 1.016 0.17 1.496-5.456-0.274-10.294-2.888-13.532-6.86-0.565 0.97-0.889 2.097-0.889 3.301 0 2.278 1.159 4.287 2.921 5.465-1.076-0.034-2.088-0.329-2.974-0.821v0.082c0 3.181 2.263 5.834 5.266 6.437-0.551 0.15-1.131 0.23-1.73 0.23-0.422 0-0.832-0.041-1.232-0.118 0.835 2.608 3.258 4.506 6.13 4.56-2.248 1.761-5.078 2.81-8.154 2.81-0.53 0-1.052-0.031-1.566-0.092 2.905 1.863 6.356 2.95 10.064 2.95 12.076 0 18.679-10.004 18.679-18.68 0-0.285-0.006-0.568-0.019-0.849 1.283-0.926 2.396-2.083 3.276-3.398z"
      ></path>
    </symbol>
  </defs>
</svg>