<svg aria-hidden="true" style="position: absolute; width: 0; height: 0; overflow: hidden;" version="1.1" xmlns="http://www.w3.org/2000/svg" xmlns:xlink="http://www.w3.org/1999/xlink">
    <defs>
        <symbol id="icon-droplet" viewBox="0 0 32 32">
            <path d="M16.038 0c0 0-10.038 11.921-10.038 22.023s9.962 9.977 9.962 9.977 10.038-0.125 10.038-10.039-9.962-21.961-9.962-21.961zM16 28c-3.313 0-6-2.687-6-6 0-2.121 1.114-3.963 2.777-5.026-0.477 0.637-0.777 1.53-0.777 2.526 0 0.207 0.019 0.407 0.043 0.604-0.009 0.134-0.043 0.26-0.043 0.396 0 0.257 0.042 0.503 0.076 0.75-0.047 0.243-0.076 0.493-0.076 0.75 0 2.209 1.791 4 4 4 0.257 0 0.507-0.029 0.75-0.075 0.248 0.034 0.493 0.075 0.75 0.075 0.136 0 0.262-0.033 0.395-0.044 0.197 0.025 0.398 0.044 0.605 0.044 0.996 0 1.889-0.3 2.526-0.776-1.063 1.662-2.905 2.776-5.026 2.776z"></path>
        </symbol>
        <symbol id="icon-facebook" viewBox="0 0 32 32">
            <path d="M19 6h5v-6h-5c-3.86 0-7 3.14-7 7v3h-4v6h4v16h6v-16h5l1-6h-6v-3c0-0.542 0.458-1 1-1z"></path>
        </symbol>
        <symbol id="icon-instagram" viewBox="0 0 32 32">
            <path d="M16 2.881c4.275 0 4.781 0.019 6.462 0.094 1.563 0.069 2.406 0.331 2.969 0.55 0.744 0.288 1.281 0.638 1.837 1.194 0.563 0.563 0.906 1.094 1.2 1.838 0.219 0.563 0.481 1.412 0.55 2.969 0.075 1.688 0.094 2.194 0.094 6.463s-0.019 4.781-0.094 6.463c-0.069 1.563-0.331 2.406-0.55 2.969-0.288 0.744-0.637 1.281-1.194 1.837-0.563 0.563-1.094 0.906-1.837 1.2-0.563 0.219-1.413 0.481-2.969 0.55-1.688 0.075-2.194 0.094-6.463 0.094s-4.781-0.019-6.463-0.094c-1.563-0.069-2.406-0.331-2.969-0.55-0.744-0.288-1.281-0.637-1.838-1.194-0.563-0.563-0.906-1.094-1.2-1.837-0.219-0.563-0.481-1.413-0.55-2.969-0.075-1.688-0.094-2.194-0.094-6.463s0.019-4.781 0.094-6.463c0.069-1.563 0.331-2.406 0.55-2.969 0.288-0.744 0.638-1.281 1.194-1.838 0.563-0.563 1.094-0.906 1.838-1.2 0.563-0.219 1.412-0.481 2.969-0.55 1.681-0.075 2.188-0.094 6.463-0.094zM16 0c-4.344 0-4.887 0.019-6.594 0.094-1.7 0.075-2.869 0.35-3.881 0.744-1.056 0.412-1.95 0.956-2.837 1.85-0.894 0.888-1.438 1.781-1.85 2.831-0.394 1.019-0.669 2.181-0.744 3.881-0.075 1.713-0.094 2.256-0.094 6.6s0.019 4.887 0.094 6.594c0.075 1.7 0.35 2.869 0.744 3.881 0.413 1.056 0.956 1.95 1.85 2.837 0.887 0.887 1.781 1.438 2.831 1.844 1.019 0.394 2.181 0.669 3.881 0.744 1.706 0.075 2.25 0.094 6.594 0.094s4.888-0.019 6.594-0.094c1.7-0.075 2.869-0.35 3.881-0.744 1.050-0.406 1.944-0.956 2.831-1.844s1.438-1.781 1.844-2.831c0.394-1.019 0.669-2.181 0.744-3.881 0.075-1.706 0.094-2.25 0.094-6.594s-0.019-4.887-0.094-6.594c-0.075-1.7-0.35-2.869-0.744-3.881-0.394-1.063-0.938-1.956-1.831-2.844-0.887-0.887-1.781-1.438-2.831-1.844-1.019-0.394-2.181-0.669-3.881-0.744-1.712-0.081-2.256-0.1-6.6-0.1v0z"></path>
            <path d="M16 7.781c-4.537 0-8.219 3.681-8.219 8.219s3.681 8.219 8.219 8.219 8.219-3.681 8.219-8.219c0-4.537-3.681-8.219-8.219-8.219zM16 21.331c-2.944 0-5.331-2.387-5.331-5.331s2.387-5.331 5.331-5.331c2.944 0 5.331 2.387 5.331 5.331s-2.387 5.331-5.331 5.331z"></path>
            <path d="M26.462 7.456c0 1.060-0.859 1.919-1.919 1.919s-1.919-0.859-1.919-1.919c0-1.060 0.859-1.919 1.919-1.919s1.919 0.859 1.919 1.919z"></path>
        </symbol>
        <symbol id="icon-twitter" viewBox="0 0 32 32">
            <path d="M32 7.075c-1.175 0.525-2.444 0.875-3.769 1.031 1.356-0.813 2.394-2.1 2.887-3.631-1.269 0.75-2.675 1.3-4.169 1.594-1.2-1.275-2.906-2.069-4.794-2.069-3.625 0-6.563 2.938-6.563 6.563 0 0.512 0.056 1.012 0.169 1.494-5.456-0.275-10.294-2.888-13.531-6.862-0.563 0.969-0.887 2.1-0.887 3.3 0 2.275 1.156 4.287 2.919 5.463-1.075-0.031-2.087-0.331-2.975-0.819 0 0.025 0 0.056 0 0.081 0 3.181 2.263 5.838 5.269 6.437-0.55 0.15-1.131 0.231-1.731 0.231-0.425 0-0.831-0.044-1.237-0.119 0.838 2.606 3.263 4.506 6.131 4.563-2.25 1.762-5.075 2.813-8.156 2.813-0.531 0-1.050-0.031-1.569-0.094 2.913 1.869 6.362 2.95 10.069 2.95 12.075 0 18.681-10.006 18.681-18.681 0-0.287-0.006-0.569-0.019-0.85 1.281-0.919 2.394-2.075 3.275-3.394z"></path>
        </symbol>
        <symbol id="icon-linkedin" viewBox="0 0 32 32">
            <path d="M12 12h5.535v2.837h0.079c0.77-1.381 2.655-2.837 5.464-2.837 5.842 0 6.922 3.637 6.922 8.367v9.633h-5.769v-8.54c0-2.037-0.042-4.657-3.001-4.657-3.005 0-3.463 2.218-3.463 4.509v8.688h-5.767v-18z"></path>
            <path d="M2 12h6v18h-6v-18z"></path>
            <path d="M8 7c0 1.657-1.343 3-3 3s-3-1.343-3-3c0-1.657 1.343-3 3-3s3 1.343 3 3z"></path>
        </symbol>
        <symbol id="icon-volleyball-water" viewBox="0 0 32 32">
            <path d="M19.856 22.672c1.386-1.502 2.536-3.263 3.365-5.245 1.875 0.837 3.564 2.014 4.991 3.451 0.029-0.076-0.079 0.213-0.17 0.43-2.515 1.579-5.268 2.18-8.187 1.364v0 0zM18.781 22.309c1.448-1.485 2.643-3.258 3.487-5.273-1.718-0.641-3.572-1.004-5.506-1.034-0.95 1.588-2.114 2.973-3.433 4.137 1.294 0.229 2.596 0.694 3.895 1.425 0.523 0.294 1.043 0.542 1.557 0.745v0 0zM11.178 19.97c-2.7-3.738-3.769-8.221-3.284-12.536 0.035-0.033-0.43 0.42-0.68 0.697-1.998 2.216-3.215 5.15-3.215 8.369 0 1.842 0.398 3.59 1.113 5.165 1.955-1.049 3.992-1.658 6.065-1.695v0 0zM28.801 14.269c-3.593-3.423-8.638-5.233-13.883-4.554 0.304 1.809 0.916 3.596 1.857 5.287 4.564 0.070 8.703 1.888 11.78 4.813-0.017 0.062 0.088-0.327 0.146-0.589 0.195-0.877 0.298-1.79 0.298-2.726 0-0.48-0.027-0.954-0.080-1.42-0.058-0.511-0.161-1.044-0.119-0.811v0zM28.349 12.508c-3.7-2.966-8.548-4.465-13.569-3.812-0.16-1.543-0.1-3.092 0.169-4.601-0.051 0.006 0.18-0.022 0.348-0.038 0.396-0.038 0.798-0.057 1.204-0.057 5.241 0 9.728 3.225 11.586 7.799 0.144 0.355 0.305 0.835 0.263 0.709v0zM9.078 6.441c-0.813 4.537 0.217 9.372 3.199 13.282 1.405-1.164 2.638-2.581 3.627-4.233-1.974-3.545-2.585-7.49-1.998-11.221 0.032-0.007-0.176 0.038-0.311 0.070-1.416 0.337-2.739 0.915-3.922 1.688-0.284 0.185-0.672 0.471-0.595 0.413v0zM3 25c0.432-0.319 0.901-0.634 1.405-0.934 4.032-2.406 8.441-2.965 12.82-0.502 4.021 2.262 7.786 1.761 11.12-0.452 0.623-0.414 1.177-0.857 1.655-1.299v1.322c-0.341 0.277-0.709 0.549-1.102 0.81-3.622 2.405-7.778 2.957-12.164 0.491-4.022-2.262-8.065-1.75-11.817 0.489-0.713 0.425-1.353 0.881-1.911 1.336-0.002 0.002-0.004 0.003-0.006 0.005v-1.266zM5.979 26.232c3.592-1.665 7.43-1.813 11.245 0.333 3.481 1.958 6.771 1.846 9.755 0.344v1.109c-3.143 1.433-6.616 1.46-10.245-0.581-3.645-2.050-7.307-1.822-10.755-0.094v-1.11z"></path>
        </symbol>
        <symbol id="icon-menu-burger" viewBox="0 0 32 32">
            <path d="M4.8 8c0-0.884 0.716-1.6 1.6-1.6h19.2c0.884 0 1.6 0.716 1.6 1.6s-0.716 1.6-1.6 1.6h-19.2c-0.884 0-1.6-0.716-1.6-1.6v0zM4.8 16c0-0.884 0.716-1.6 1.6-1.6h19.2c0.884 0 1.6 0.716 1.6 1.6s-0.716 1.6-1.6 1.6h-19.2c-0.884 0-1.6-0.716-1.6-1.6v0zM4.8 24c0-0.884 0.716-1.6 1.6-1.6h19.2c0.884 0 1.6 0.716 1.6 1.6s-0.716 1.6-1.6 1.6h-19.2c-0.884 0-1.6-0.716-1.6-1.6v0z"></path>
        </symbol>
        <symbol id="icon-close-black" viewBox="0 0 32 32">
            <path d="M32 3.223 28.777 0 16 12.777 3.223 0 0 3.223 12.777 16 0 28.777 3.223 32 16 19.223 28.777 32 32 28.777 19.223 16 32 3.223z"/>
        </symbol>
    </defs>
</svg>